<?xml version="1.0" standalone="no"?>
<!DOCTYPE svg PUBLIC "-//W3C//DTD SVG 20010904//EN"
 "http://www.w3.org/TR/2001/REC-SVG-20010904/DTD/svg10.dtd">
<svg version="1.0" xmlns="http://www.w3.org/2000/svg"
 width="512.000000pt" height="512.000000pt" viewBox="0 0 512.000000 512.000000"
 preserveAspectRatio="xMidYMid meet">

<g transform="translate(0.000000,512.000000) scale(0.100000,-0.100000)"
 stroke="none">
<path d="M1905 5105 c-169 -37 -304 -142 -401 -310 -42 -73 -106 -132 -180
-167 -57 -27 -80 -31 -197 -38 -207 -13 -298 -51 -422 -175 -124 -124 -162
-215 -175 -422 -7 -117 -11 -140 -38 -197 -37 -79 -94 -137 -189 -194 -181
-107 -287 -277 -300 -481 -7 -117 13 -198 85 -340 l57 -115 0 -106 0 -106 -57
-115 c-72 -142 -92 -223 -85 -340 13 -204 119 -374 300 -481 95 -57 152 -115
189 -194 27 -57 31 -80 38 -197 13 -207 51 -298 175 -422 124 -124 215 -162
422 -175 117 -7 140 -11 197 -38 79 -37 137 -94 194 -189 107 -181 277 -287
481 -300 117 -7 198 13 340 85 l115 57 106 0 106 0 115 -57 c142 -72 223 -92
340 -85 204 13 374 119 481 300 57 95 115 152 194 189 58 27 80 31 197 38 202
12 300 52 423 174 72 71 128 163 153 251 7 22 16 99 20 172 8 116 12 140 39
197 37 79 94 137 189 194 181 107 287 277 300 481 7 117 -13 198 -85 340 l-57
115 0 106 0 106 57 115 c72 142 92 223 85 340 -13 204 -119 374 -300 481 -95
57 -152 115 -189 194 -27 57 -31 81 -39 197 -4 73 -13 150 -20 172 -57 196
-234 364 -430 409 -94 22 -272 23 -304 2 -37 -24 -50 -59 -39 -103 16 -62 45
-75 186 -83 103 -5 133 -11 181 -33 73 -33 155 -114 192 -190 25 -51 29 -75
36 -190 4 -73 15 -157 24 -187 42 -140 147 -270 283 -350 90 -53 163 -132 193
-208 18 -44 23 -78 24 -148 l0 -91 -57 -114 c-69 -137 -88 -205 -88 -319 0
-114 19 -182 88 -319 l57 -114 0 -91 c-1 -70 -6 -104 -24 -148 -30 -76 -103
-155 -193 -208 -136 -80 -241 -210 -283 -350 -9 -30 -20 -115 -25 -188 -10
-158 -32 -215 -117 -300 -81 -81 -140 -104 -297 -113 -72 -4 -156 -15 -186
-24 -140 -42 -270 -147 -350 -283 -53 -90 -132 -163 -208 -193 -44 -18 -78
-23 -148 -24 l-90 0 -125 62 c-139 69 -192 83 -312 83 -110 0 -180 -19 -313
-86 -91 -46 -123 -57 -176 -61 -163 -13 -295 62 -389 220 -79 135 -209 240
-349 282 -30 9 -114 20 -187 24 -115 7 -139 11 -190 36 -75 37 -157 119 -190
192 -22 48 -27 78 -34 187 -8 144 -29 227 -78 312 -47 81 -127 161 -218 216
-171 105 -244 229 -230 396 4 53 15 85 61 176 67 134 86 203 86 316 0 113 -19
182 -86 316 -46 91 -57 123 -61 176 -14 167 59 291 230 396 91 55 171 135 218
216 49 85 70 168 78 312 7 109 12 139 34 187 33 73 115 155 190 192 51 25 75
29 190 36 73 4 157 15 187 24 140 42 270 147 349 282 94 158 226 233 389 220
53 -4 85 -15 176 -61 133 -67 203 -86 313 -86 119 0 173 14 311 82 122 61 123
61 227 66 95 4 107 7 130 30 19 18 25 35 25 66 0 77 -45 106 -166 106 -90 0
-199 -32 -314 -92 l-102 -53 -108 0 -108 0 -102 53 c-165 86 -299 109 -445 77z"/>
<path d="M3489 4846 c-43 -14 -75 -69 -65 -110 19 -77 111 -103 167 -47 38 38
39 87 4 129 -29 35 -60 43 -106 28z"/>
<path d="M2297 4485 c-279 -38 -573 -148 -800 -299 -109 -73 -231 -172 -289
-234 -40 -43 -48 -57 -48 -90 0 -67 77 -120 131 -91 12 6 63 47 112 91 244
215 514 347 852 415 142 28 482 25 633 -5 316 -64 588 -199 835 -416 54 -46
106 -88 117 -91 30 -9 86 12 104 40 9 13 16 40 16 60 0 43 -37 87 -161 190
-280 233 -620 382 -987 430 -137 18 -381 18 -515 0z"/>
<path d="M2524 4001 c-30 -13 -64 -59 -64 -88 0 -20 -3 -22 -19 -13 -95 50
-191 -81 -115 -157 l25 -25 -25 -27 c-30 -31 -35 -93 -11 -128 21 -30 75 -46
109 -33 15 5 29 10 30 10 2 0 6 -14 10 -30 3 -17 17 -42 30 -55 53 -53 147
-21 162 55 4 16 8 30 10 30 1 0 15 -5 30 -10 34 -13 88 3 109 33 24 35 19 97
-11 128 l-25 27 25 25 c76 76 -20 207 -115 157 -16 -9 -19 -7 -19 14 0 56 -83
109 -136 87z"/>
<path d="M674 3050 c-54 -22 -54 -19 -54 -492 l0 -437 24 -28 24 -28 199 0
c187 0 201 1 251 24 69 31 145 114 167 182 13 37 16 73 13 128 -5 82 -20 121
-74 187 -34 42 -34 42 -17 75 25 50 29 147 8 210 -25 75 -103 152 -175 173
-59 18 -327 22 -366 6z m331 -215 c25 -24 32 -65 19 -100 -11 -28 -60 -45
-134 -45 l-70 0 0 85 0 85 80 0 c73 0 83 -3 105 -25z m61 -379 c28 -28 34 -41
34 -78 0 -88 -47 -118 -185 -118 l-95 0 0 115 0 115 106 0 106 0 34 -34z"/>
<path d="M1473 3050 c-12 -5 -30 -21 -40 -37 -16 -25 -18 -61 -21 -418 -2
-214 0 -410 3 -434 5 -30 16 -54 36 -74 26 -26 35 -29 72 -24 28 4 49 14 64
32 21 24 23 36 23 136 0 60 4 109 9 109 4 0 58 -58 120 -128 139 -161 176
-180 239 -127 34 29 47 70 34 106 -6 13 -57 78 -115 144 l-106 119 46 22 c25
13 65 42 89 65 150 147 104 394 -91 489 -45 21 -66 24 -195 27 -80 1 -155 -1
-167 -7z m306 -224 c38 -37 47 -75 26 -115 -22 -44 -56 -62 -125 -68 l-60 -6
0 113 0 112 65 -4 c54 -3 69 -8 94 -32z"/>
<path d="M2451 3047 c-13 -6 -32 -23 -42 -37 -24 -33 -289 -815 -289 -853 0
-15 5 -37 10 -48 13 -24 61 -49 94 -49 36 0 81 43 95 90 l12 40 166 -2 166 -3
14 -40 c18 -54 42 -75 90 -82 34 -4 45 -1 72 23 17 16 33 42 36 59 3 21 -38
156 -138 450 -136 403 -143 421 -176 442 -38 26 -74 29 -110 10z m98 -517 c22
-69 41 -128 41 -133 0 -4 -42 -7 -94 -7 l-94 0 46 140 c26 77 49 136 53 132 4
-4 25 -63 48 -132z"/>
<path d="M3020 3047 c-14 -7 -33 -28 -43 -47 -16 -32 -17 -70 -15 -458 l3
-424 33 -29 c44 -40 93 -40 133 0 l29 29 0 251 c0 138 3 251 8 251 4 -1 86
-118 182 -261 112 -168 185 -266 202 -275 47 -24 86 -18 124 20 l34 34 0 430
0 431 -23 26 c-14 17 -36 28 -63 32 -36 5 -46 1 -75 -25 l-34 -30 -3 -262 -3
-262 -184 274 c-105 156 -196 280 -212 290 -33 21 -59 22 -93 5z"/>
<path d="M3894 3050 c-54 -22 -54 -19 -54 -488 0 -278 4 -440 10 -453 20 -36
63 -49 164 -49 165 0 260 33 345 118 92 93 141 226 141 384 0 111 -14 175 -55
263 -56 117 -141 189 -260 219 -64 17 -255 21 -291 6z m271 -209 c85 -39 127
-120 133 -257 9 -193 -66 -308 -210 -322 l-48 -5 0 302 0 301 43 0 c23 0 60
-9 82 -19z"/>
<path d="M2494 1665 c-13 -13 -27 -38 -30 -55 -4 -16 -8 -30 -10 -30 -1 0 -15
5 -30 10 -34 13 -88 -3 -109 -33 -24 -35 -19 -97 11 -128 l25 -27 -25 -25
c-76 -76 20 -207 115 -157 16 9 19 7 19 -14 0 -14 13 -40 29 -58 24 -27 36
-33 71 -33 35 0 47 6 71 33 16 18 29 44 29 58 0 21 3 23 19 14 95 -50 191 81
115 157 l-25 25 25 27 c30 31 35 93 11 128 -21 30 -75 46 -109 33 -15 -5 -29
-10 -30 -10 -2 0 -6 14 -10 30 -9 48 -48 80 -96 80 -30 0 -47 -6 -66 -25z"/>
<path d="M1216 1345 c-41 -22 -55 -44 -56 -90 0 -36 6 -46 73 -110 164 -161
419 -321 647 -405 504 -186 1071 -156 1545 82 192 97 394 241 498 356 42 47
49 94 21 137 -18 28 -74 49 -104 40 -11 -3 -63 -45 -117 -91 -247 -217 -519
-352 -835 -416 -151 -30 -491 -33 -633 -5 -338 68 -608 200 -852 415 -123 109
-134 114 -187 87z"/>
</g>
</svg>
