<?xml version="1.0" standalone="no"?>
<!DOCTYPE svg PUBLIC "-//W3C//DTD SVG 20010904//EN"
 "http://www.w3.org/TR/2001/REC-SVG-20010904/DTD/svg10.dtd">
<svg version="1.0" xmlns="http://www.w3.org/2000/svg"
 width="512.000000pt" height="512.000000pt" viewBox="0 0 512.000000 512.000000"
 preserveAspectRatio="xMidYMid meet">

<g transform="translate(0.000000,512.000000) scale(0.100000,-0.100000)"
 stroke="none">
<path d="M683 4785 c-85 -23 -153 -63 -219 -129 -67 -67 -106 -134 -129 -223
-22 -86 -22 -2380 0 -2466 23 -89 62 -156 129 -223 104 -104 212 -144 394
-144 l102 0 0 -108 c0 -178 39 -283 144 -388 104 -104 212 -144 394 -144 l102
0 0 -108 c0 -178 39 -283 144 -388 34 -34 85 -73 114 -88 113 -57 75 -56 1338
-56 749 0 1180 4 1215 10 183 35 344 196 379 379 14 74 14 2348 0 2422 -25
129 -125 267 -238 327 -86 46 -160 62 -284 62 l-108 0 0 99 c0 179 -35 282
-133 387 -101 109 -218 154 -399 154 l-108 0 0 99 c0 54 -5 122 -10 152 -25
129 -125 267 -238 327 -122 65 -57 62 -1357 61 -982 0 -1189 -3 -1232 -14z
m2443 -331 c60 -44 69 -67 72 -185 l4 -109 -909 0 c-988 0 -962 1 -1075 -56
-67 -34 -168 -135 -202 -202 -57 -113 -56 -87 -56 -1075 l0 -909 -109 4 c-118
3 -141 12 -185 72 -21 27 -21 34 -24 1179 -1 634 0 1166 3 1184 7 40 49 91 90
109 24 11 242 13 1197 11 1161 -2 1167 -2 1194 -23z m640 -640 c60 -44 69 -67
72 -185 l4 -109 -909 0 c-988 0 -962 1 -1075 -56 -67 -34 -168 -135 -202 -202
-57 -113 -56 -87 -56 -1075 l0 -909 -109 4 c-118 3 -141 12 -185 72 -21 27
-21 34 -24 1179 -1 634 0 1166 3 1184 7 40 49 91 90 109 24 11 242 13 1197 11
1161 -2 1167 -2 1194 -23z m640 -640 c15 -11 37 -33 48 -48 21 -27 21 -31 21
-1206 0 -1175 0 -1179 -21 -1206 -11 -15 -33 -37 -48 -48 -27 -21 -31 -21
-1206 -21 -1175 0 -1179 0 -1206 21 -15 11 -37 33 -48 48 -21 27 -21 34 -24
1179 -1 634 0 1166 3 1184 7 40 49 91 90 109 24 11 242 13 1197 11 1161 -2
1167 -2 1194 -23z"/>
<path d="M3135 2866 c-37 -17 -70 -52 -84 -89 -7 -18 -11 -150 -11 -362 l0
-334 -349 -3 c-335 -3 -351 -4 -377 -24 -53 -39 -69 -71 -69 -134 0 -63 16
-95 69 -134 26 -20 42 -21 376 -24 l349 -3 3 -349 c3 -334 4 -350 24 -376 39
-53 71 -69 134 -69 63 0 95 16 134 69 20 26 21 42 24 376 l3 349 349 3 c334 3
350 4 376 24 53 39 69 71 69 134 0 63 -16 95 -69 134 -26 20 -42 21 -376 24
l-349 3 -3 349 c-3 334 -4 350 -24 376 -11 15 -32 37 -46 47 -34 25 -113 32
-153 13z"/>
</g>
</svg>
