<?xml version="1.0" standalone="no"?>
<!DOCTYPE svg PUBLIC "-//W3C//DTD SVG 20010904//EN"
 "http://www.w3.org/TR/2001/REC-SVG-20010904/DTD/svg10.dtd">
<svg version="1.0" xmlns="http://www.w3.org/2000/svg"
 width="512.000000pt" height="512.000000pt" viewBox="0 0 512.000000 512.000000"
 preserveAspectRatio="xMidYMid meet">

<g transform="translate(0.000000,512.000000) scale(0.100000,-0.100000)"
 stroke="none">
<path d="M773 5106 c-94 -30 -179 -110 -210 -199 -17 -50 -18 -161 -18 -2347
0 -2194 1 -2297 18 -2347 24 -70 93 -145 165 -180 l57 -28 1775 0 1775 0 57
28 c72 35 141 110 165 180 16 48 18 94 18 560 l0 509 -24 19 c-30 25 -62 24
-95 -2 l-26 -20 0 -487 c-1 -512 -3 -535 -47 -584 -10 -11 -35 -29 -55 -39
-36 -18 -89 -19 -1768 -19 -1679 0 -1732 1 -1768 19 -47 24 -70 50 -88 98 -20
57 -20 4529 0 4586 18 48 41 74 88 98 34 17 62 19 326 19 278 0 290 1 316 21
36 28 36 80 0 108 -26 20 -38 21 -323 20 -214 0 -308 -4 -338 -13z"/>
<path d="M1652 5113 c-7 -2 -19 -18 -28 -35 -13 -25 -13 -35 -3 -59 6 -17 20
-34 30 -39 11 -6 509 -10 1329 -10 1267 0 1312 -1 1348 -19 20 -10 45 -28 55
-39 48 -52 46 6 47 -1749 l0 -1652 26 -20 c33 -26 65 -27 95 -2 l24 19 0 1674
c0 1592 -1 1676 -18 1725 -24 70 -93 145 -165 180 l-57 28 -1335 2 c-734 1
-1341 -1 -1348 -4z"/>
<path d="M1020 4692 l-30 -30 0 -231 c0 -227 0 -230 23 -257 31 -35 82 -38
109 -5 16 21 18 45 18 261 0 261 -2 271 -62 286 -22 5 -33 0 -58 -24z"/>
<path d="M1323 4710 c-39 -16 -43 -39 -43 -283 0 -213 2 -237 18 -258 25 -30
75 -30 105 0 19 18 23 36 27 122 l5 100 65 -97 c36 -53 76 -107 89 -120 31
-32 75 -31 106 1 l25 24 0 233 c-1 167 -4 237 -13 249 -20 26 -55 40 -82 33
-45 -11 -55 -39 -55 -153 l0 -105 -79 115 c-44 63 -85 120 -93 126 -21 17 -51
22 -75 13z"/>
<path d="M1833 4710 c-24 -10 -43 -39 -43 -67 0 -10 34 -119 77 -242 69 -202
80 -225 107 -242 34 -21 69 -18 98 8 10 9 52 121 95 249 l77 233 -20 27 c-26
36 -53 45 -91 29 -28 -12 -34 -24 -73 -139 -23 -69 -43 -126 -44 -126 -2 0
-22 54 -46 120 -51 146 -77 174 -137 150z"/>
<path d="M2467 4709 c-62 -15 -112 -46 -156 -95 -95 -108 -93 -264 4 -372 134
-149 371 -118 468 63 31 58 31 192 -1 252 -60 114 -198 181 -315 152z m131
-166 c112 -71 59 -247 -74 -245 -125 1 -180 150 -86 235 41 38 110 42 160 10z"/>
<path d="M2980 4707 c-47 -24 -50 -45 -48 -289 3 -219 4 -228 25 -249 27 -27
75 -29 103 -4 19 17 20 30 20 265 0 223 -2 248 -17 262 -27 24 -55 29 -83 15z"/>
<path d="M3418 4706 c-89 -24 -158 -86 -194 -171 -22 -55 -21 -162 4 -217 66
-150 245 -217 382 -142 52 28 90 73 90 105 0 9 -9 28 -21 43 -28 35 -76 35
-119 0 -78 -66 -200 -3 -202 104 -1 103 94 164 189 122 57 -25 74 -25 107 1
34 27 36 77 3 107 -52 49 -160 71 -239 48z"/>
<path d="M3821 4684 c-20 -25 -21 -39 -21 -254 0 -295 -9 -280 165 -280 122 0
124 0 144 26 27 35 26 57 -3 90 -20 24 -32 28 -90 32 -66 4 -67 5 -64 31 3 24
7 26 63 29 73 4 95 21 95 72 0 51 -25 71 -99 77 -55 5 -61 8 -61 28 0 21 6 23
66 27 58 4 70 8 90 32 29 33 30 55 3 90 -20 26 -22 26 -144 26 -122 0 -124 0
-144 -26z"/>
<path d="M3100 3810 c-30 -30 -27 -83 6 -109 26 -21 36 -21 490 -21 318 0 471
3 487 11 24 11 47 47 47 73 0 7 -9 25 -21 40 l-20 26 -485 0 c-471 0 -485 -1
-504 -20z"/>
<path d="M3615 3475 c-28 -27 -30 -42 -14 -78 19 -42 47 -47 259 -47 212 0
240 5 259 47 16 36 14 51 -14 78 l-24 25 -221 0 -221 0 -24 -25z"/>
<path d="M1195 3061 c-40 -24 -71 -60 -84 -94 -8 -19 -11 -290 -11 -843 0
-780 1 -816 19 -852 24 -47 50 -70 98 -88 50 -17 788 -20 826 -3 24 11 47 47
47 73 0 7 -9 25 -21 40 l-20 26 -384 0 c-211 0 -390 3 -399 6 -14 5 -16 33
-16 210 l0 204 945 0 945 0 0 -210 0 -210 -428 0 -429 0 -21 -23 c-27 -29 -28
-67 -3 -98 l19 -24 787 -3 c512 -1 800 1 824 8 51 13 87 43 111 91 19 37 20
62 20 853 0 551 -3 824 -11 843 -13 34 -55 80 -91 99 -23 12 -232 14 -1360 14
-1283 0 -1334 -1 -1363 -19z m1945 -336 l0 -205 -945 0 -945 0 0 198 c0 109 3
202 7 205 3 4 429 7 945 7 l938 0 0 -205z m728 -2 l2 -203 -290 0 -290 0 0
205 0 205 288 -2 287 -3 3 -202z m-728 -593 l0 -240 -945 0 -945 0 0 240 0
240 945 0 945 0 0 -240z m730 0 l0 -240 -290 0 -290 0 0 233 c0 129 3 237 7
240 3 4 134 7 290 7 l283 0 0 -240z m0 -595 c0 -204 0 -205 -22 -210 -13 -3
-142 -4 -288 -3 l-265 3 -3 195 c-1 107 0 200 2 207 4 10 68 13 291 13 l285 0
0 -205z"/>
<path d="M3071 758 c-30 -16 -63 -49 -101 -98 -38 -52 -63 -76 -80 -78 -65 -9
-91 -82 -45 -127 27 -28 42 -30 97 -15 48 14 89 49 141 119 69 94 80 94 152
-3 79 -107 145 -140 233 -117 51 14 92 48 145 120 69 94 80 94 152 -3 30 -41
69 -83 87 -94 74 -45 146 -36 169 20 17 43 -3 78 -58 98 -31 11 -53 30 -86 75
-74 101 -111 125 -189 125 -70 0 -122 -33 -186 -119 -32 -42 -65 -77 -74 -79
-17 -3 -23 2 -99 97 -63 78 -89 94 -156 99 -47 3 -67 -1 -102 -20z"/>
</g>
</svg>
