<?xml version="1.0" standalone="no"?>
<!DOCTYPE svg PUBLIC "-//W3C//DTD SVG 20010904//EN"
 "http://www.w3.org/TR/2001/REC-SVG-20010904/DTD/svg10.dtd">
<svg version="1.0" xmlns="http://www.w3.org/2000/svg"
 width="512.000000pt" height="512.000000pt" viewBox="0 0 512.000000 512.000000"
 preserveAspectRatio="xMidYMid meet">

<g transform="translate(0.000000,512.000000) scale(0.100000,-0.100000)"
 stroke="none">
<path d="M1805 5095 c-31 -30 -32 -67 -2 -98 12 -14 181 -125 376 -247 l353
-223 -278 -83 c-154 -46 -285 -84 -293 -84 -8 0 -93 50 -190 111 -311 197
-334 210 -358 204 -24 -6 -594 -375 -630 -408 -49 -44 -10 -135 54 -125 15 2
153 86 307 187 153 100 282 180 286 179 4 -2 330 -207 724 -457 625 -396 714
-455 699 -466 -155 -108 -1188 -775 -1197 -773 -17 4 -1435 902 -1436 908 0 3
66 48 147 100 186 120 203 135 203 170 0 39 -35 80 -68 80 -30 0 -441 -262
-479 -306 l-23 -25 0 -1342 c1 -1071 3 -1345 13 -1359 19 -24 1624 -1038 1644
-1038 9 0 640 185 1402 411 1046 310 1390 415 1404 431 32 38 17 101 -28 118
-19 7 -52 1 -137 -25 -343 -102 -2547 -755 -2552 -755 -3 0 -6 558 -6 1239 l0
1240 83 25 c45 14 744 221 1552 461 809 240 1498 444 1533 454 l62 19 0 -1242
0 -1242 -82 -24 c-123 -34 -154 -49 -166 -75 -21 -46 12 -105 58 -105 26 0
230 57 293 82 15 6 32 19 37 29 6 11 10 519 10 1358 l0 1341 -27 29 c-16 16
-127 91 -248 167 -121 76 -292 184 -380 239 -738 468 -953 603 -970 612 -20
11 -1617 333 -1649 333 -9 0 -28 -11 -41 -25z m1040 -325 c308 -61 570 -115
583 -120 36 -15 1213 -763 1208 -767 -2 -3 -266 48 -587 112 l-582 117 -256
162 c-295 188 -713 452 -851 539 -105 66 -126 82 -95 74 11 -3 272 -56 580
-117z m210 -575 l356 -225 656 -132 c437 -88 649 -135 637 -140 -29 -13 -2547
-758 -2550 -755 -2 1 196 132 439 291 243 159 452 298 465 309 21 20 28 58 16
91 -3 9 -217 149 -475 312 -258 164 -467 300 -464 302 5 5 536 167 558 171 4
0 167 -100 362 -224z m-2160 -1084 l690 -436 3 -1228 c1 -695 -2 -1227 -7
-1227 -7 0 -1130 706 -1354 852 l-77 51 0 1229 0 1229 28 -16 c15 -9 338 -213
717 -454z"/>
<path d="M3685 1924 c-506 -150 -1081 -322 -1279 -381 -247 -73 -364 -113
-377 -127 -18 -19 -19 -42 -19 -412 0 -368 1 -393 19 -415 13 -16 29 -23 52
-23 19 1 216 55 439 122 223 67 791 236 1263 377 472 140 868 260 878 266 11
5 24 21 29 35 6 14 10 185 10 395 0 305 -3 375 -15 398 -15 29 -34 41 -63 40
-9 0 -431 -124 -937 -275z m865 -189 l0 -284 -97 -30 c-106 -32 -556 -166
-1598 -476 -363 -108 -668 -198 -677 -201 -17 -5 -18 13 -18 283 l0 288 203
59 c111 33 643 191 1182 352 539 161 986 293 993 293 9 1 12 -62 12 -284z"/>
<path d="M4302 1827 c-20 -22 -22 -34 -22 -156 0 -127 1 -133 25 -156 13 -14
36 -25 50 -25 14 0 37 11 50 25 24 23 25 29 25 158 0 127 -1 135 -23 155 -31
29 -77 29 -105 -1z"/>
<path d="M4080 1770 c-18 -18 -20 -33 -20 -155 0 -133 1 -137 26 -162 20 -20
31 -24 57 -19 57 12 62 23 65 171 3 132 3 135 -22 160 -31 31 -78 33 -106 5z"/>
<path d="M3860 1710 c-18 -18 -20 -33 -20 -159 0 -139 0 -140 26 -160 30 -24
43 -26 77 -10 38 17 47 50 47 180 0 114 -1 121 -25 144 -30 31 -77 33 -105 5z"/>
<path d="M3472 1584 c-21 -14 -22 -22 -22 -159 0 -143 0 -144 26 -164 35 -27
57 -26 91 3 l28 24 0 137 c0 132 -1 137 -24 156 -28 23 -69 24 -99 3z"/>
<path d="M3272 1540 c-35 -15 -44 -54 -40 -188 3 -116 4 -125 27 -143 30 -25
76 -24 101 1 18 18 20 33 20 159 0 139 0 140 -26 160 -29 23 -46 25 -82 11z"/>
<path d="M2883 1420 c-36 -15 -43 -43 -43 -173 0 -111 2 -127 21 -151 27 -34
79 -36 109 -4 18 20 20 35 20 158 0 118 -2 139 -17 153 -24 21 -63 28 -90 17z"/>
<path d="M2522 1294 c-21 -14 -22 -22 -22 -159 0 -143 0 -144 26 -164 35 -27
57 -26 91 3 l28 24 0 137 c0 132 -1 137 -24 156 -28 23 -69 24 -99 3z"/>
<path d="M2306 1239 c-26 -20 -26 -21 -26 -158 0 -131 1 -139 23 -159 31 -29
72 -28 102 3 24 23 25 29 25 155 0 126 -1 132 -25 155 -30 30 -64 32 -99 4z"/>
</g>
</svg>
