<?xml version="1.0" standalone="no"?>
<!DOCTYPE svg PUBLIC "-//W3C//DTD SVG 20010904//EN"
 "http://www.w3.org/TR/2001/REC-SVG-20010904/DTD/svg10.dtd">
<svg version="1.0" xmlns="http://www.w3.org/2000/svg"
 width="512.000000pt" height="512.000000pt" viewBox="0 0 512.000000 512.000000"
 preserveAspectRatio="xMidYMid meet">

<g transform="translate(0.000000,512.000000) scale(0.100000,-0.100000)"
stroke="none">
<path d="M1026 4389 c-62 -15 -153 -68 -197 -116 -22 -24 -55 -74 -72 -111
l-32 -67 0 -535 0 -535 32 -67 c44 -93 100 -151 191 -196 l76 -37 536 0 536 0
76 37 c91 45 147 103 191 196 l32 67 0 536 0 535 -37 76 c-45 91 -103 147
-196 191 l-67 32 -515 2 c-291 1 -532 -3 -554 -8z m1048 -161 c55 -16 138 -99
154 -154 17 -59 17 -969 0 -1028 -16 -55 -99 -138 -154 -154 -59 -17 -969 -17
-1028 0 -55 16 -138 99 -154 154 -17 59 -17 969 0 1028 15 51 99 137 148 153
52 16 979 17 1034 1z"/>
<path d="M3026 4389 c-62 -15 -153 -68 -197 -116 -22 -24 -55 -74 -72 -111
l-32 -67 0 -535 0 -535 32 -67 c44 -93 100 -151 191 -196 l76 -37 536 0 536 0
76 37 c91 45 147 103 191 196 l32 67 0 536 0 535 -37 76 c-45 91 -103 147
-196 191 l-67 32 -515 2 c-291 1 -532 -3 -554 -8z m1048 -161 c55 -16 138 -99
154 -154 17 -59 17 -969 0 -1028 -16 -55 -99 -138 -154 -154 -59 -17 -969 -17
-1028 0 -55 16 -138 99 -154 154 -9 30 -12 172 -12 514 0 342 3 484 12 514 15
51 99 137 148 153 52 16 979 17 1034 1z"/>
<path d="M1026 2389 c-62 -15 -153 -68 -197 -116 -22 -24 -55 -74 -72 -111
l-32 -67 0 -535 0 -535 32 -67 c44 -93 100 -151 191 -196 l76 -37 536 0 536 0
76 37 c91 45 147 103 191 196 l32 67 0 536 0 535 -37 76 c-45 91 -103 147
-196 191 l-67 32 -515 2 c-291 1 -532 -3 -554 -8z m1048 -161 c55 -16 138 -99
154 -154 17 -59 17 -969 0 -1028 -16 -55 -99 -138 -154 -154 -59 -17 -969 -17
-1028 0 -55 16 -138 99 -154 154 -17 59 -17 969 0 1028 15 51 99 137 148 153
52 16 979 17 1034 1z"/>
<path d="M3026 2389 c-62 -15 -153 -68 -197 -116 -22 -24 -55 -74 -72 -111
l-32 -67 0 -535 0 -535 32 -67 c44 -93 100 -151 191 -196 l76 -37 536 0 536 0
76 37 c91 45 147 103 191 196 l32 67 0 536 0 535 -37 76 c-45 91 -103 147
-196 191 l-67 32 -515 2 c-291 1 -532 -3 -554 -8z m1048 -161 c55 -16 138 -99
154 -154 17 -59 17 -969 0 -1028 -16 -55 -99 -138 -154 -154 -59 -17 -969 -17
-1028 0 -55 16 -138 99 -154 154 -9 30 -12 172 -12 514 0 342 3 484 12 514 15
51 99 137 148 153 52 16 979 17 1034 1z"/>
<path d="M3505 1975 c-24 -24 -25 -28 -25 -180 l0 -155 -155 0 c-152 0 -156
-1 -180 -25 -33 -32 -33 -78 0 -110 24 -24 28 -25 180 -25 l155 0 0 -155 c0
-152 1 -156 25 -180 32 -33 78 -33 110 0 24 24 25 28 25 180 l0 155 155 0
c152 0 156 1 180 25 33 32 33 78 0 110 -24 24 -28 25 -180 25 l-155 0 0 155
c0 152 -1 156 -25 180 -15 16 -36 25 -55 25 -19 0 -40 -9 -55 -25z"/>
</g>
</svg>
