<?xml version="1.0" standalone="no"?>
<!DOCTYPE svg PUBLIC "-//W3C//DTD SVG 20010904//EN"
 "http://www.w3.org/TR/2001/REC-SVG-20010904/DTD/svg10.dtd">
<svg version="1.0" xmlns="http://www.w3.org/2000/svg"
 width="512.000000pt" height="512.000000pt" viewBox="0 0 512.000000 512.000000"
 preserveAspectRatio="xMidYMid meet">

<g transform="translate(0.000000,512.000000) scale(0.100000,-0.100000)"
 stroke="none">
<path d="M834 4870 c-146 -26 -266 -92 -384 -210 -67 -67 -94 -103 -128 -170
-60 -120 -76 -192 -76 -330 0 -137 16 -209 76 -330 60 -120 188 -248 308 -308
47 -23 110 -48 140 -56 l55 -14 -2 -38 c-2 -22 -23 -236 -48 -476 -25 -240
-45 -456 -45 -480 0 -24 9 -61 19 -83 13 -28 341 -361 1057 -1077 1103 -1101
1057 -1058 1148 -1058 90 0 67 -21 838 749 423 422 735 740 744 760 23 48 28
108 14 161 -11 40 -43 76 -273 308 l-261 262 -448 0 -448 0 0 -495 0 -496 -25
-24 c-23 -24 -31 -25 -136 -25 l-112 0 -41 43 c-112 117 -952 1031 -958 1042
-4 7 22 344 57 750 36 405 65 742 65 749 0 8 -128 -2 -457 -36 -252 -26 -472
-49 -489 -53 -43 -8 -106 -55 -134 -100 -15 -25 -27 -68 -36 -129 -6 -50 -12
-92 -13 -93 -3 -7 -134 47 -176 71 -79 47 -161 138 -205 230 -152 315 1 668
340 782 40 14 84 19 160 19 76 0 120 -5 160 -19 223 -75 360 -239 394 -471
l12 -80 44 -7 c25 -4 60 -10 78 -13 l32 -6 0 50 c0 71 -24 187 -54 261 -83
203 -270 369 -481 425 -72 20 -241 27 -311 15z m672 -1151 c62 -30 123 -90
154 -154 35 -72 35 -198 0 -270 -31 -64 -91 -124 -155 -155 -72 -35 -198 -35
-270 0 -64 31 -124 91 -155 155 -34 71 -35 200 -1 265 49 94 100 139 199 177
53 20 166 11 228 -18z m-477 -1085 l33 -5 -5 -62 -5 -62 62 -63 61 -62 -58
-57 -57 -58 -56 55 c-30 30 -68 75 -82 100 -24 40 -27 54 -25 128 2 46 5 88 9
93 5 8 31 7 123 -7z m3245 -634 c105 -112 103 -202 -6 -308 l-54 -52 -54 55
-54 55 42 43 c23 23 42 47 42 53 0 5 -20 30 -45 54 l-45 44 52 53 c29 29 57
53 64 53 6 0 32 -23 58 -50z m-1319 -1390 c5 0 29 19 52 42 l43 42 55 -54 55
-54 -52 -54 c-78 -80 -145 -101 -221 -68 -37 15 -137 102 -137 119 0 6 23 35
52 64 l52 53 46 -45 c25 -25 50 -45 55 -45z"/>
<path d="M1302 3574 c-107 -55 -121 -198 -26 -270 31 -24 47 -29 95 -29 62 0
94 17 132 67 26 35 33 105 14 149 -33 80 -141 121 -215 83z"/>
<path d="M2181 4214 c-18 -14 -33 -39 -36 -57 -3 -18 -32 -342 -65 -722 -33
-379 -62 -714 -65 -742 l-6 -53 1330 0 1329 0 30 25 c17 14 33 38 36 53 3 15
33 343 67 730 67 767 66 747 8 777 -24 13 -209 15 -1313 15 l-1284 0 -31 -26z
m619 -454 l0 -79 -157 -3 -158 -3 0 -75 0 -75 95 -5 c171 -10 220 -63 220
-240 0 -130 -26 -185 -105 -221 -34 -16 -66 -19 -207 -19 l-168 0 0 80 0 79
158 3 157 3 0 75 0 75 -95 5 c-171 10 -220 63 -220 240 0 130 26 185 105 221
34 16 66 19 208 19 l167 0 0 -80z m474 68 c55 -16 138 -99 154 -154 8 -28 12
-134 12 -338 l0 -296 -80 0 -80 0 0 120 0 120 -80 0 -80 0 0 -120 0 -120 -80
0 -80 0 0 296 c0 204 4 310 12 338 15 51 99 137 148 153 48 15 105 15 154 1z
m486 -308 l0 -320 120 0 120 0 0 -80 0 -80 -175 0 c-173 0 -176 0 -200 25
l-25 24 0 376 0 375 80 0 80 0 0 -320z m800 240 l0 -80 -120 0 -120 0 0 -80 0
-80 80 0 80 0 0 -80 0 -80 -80 0 -80 0 0 -80 0 -80 120 0 120 0 0 -80 0 -80
-175 0 c-173 0 -176 0 -200 25 l-25 24 0 351 0 351 25 24 c24 25 27 25 200 25
l175 0 0 -80z"/>
<path d="M3145 3655 c-23 -22 -25 -32 -25 -120 l0 -95 80 0 80 0 0 95 c0 88
-2 98 -25 120 -15 16 -36 25 -55 25 -19 0 -40 -9 -55 -25z"/>
<path d="M2110 2476 c0 -2 180 -199 400 -438 290 -314 407 -434 425 -436 l25
-3 0 440 0 441 -425 0 c-234 0 -425 -2 -425 -4z"/>
</g>
</svg>
