<?xml version="1.0" standalone="no"?>
<!DOCTYPE svg PUBLIC "-//W3C//DTD SVG 20010904//EN"
 "http://www.w3.org/TR/2001/REC-SVG-20010904/DTD/svg10.dtd">
<svg version="1.0" xmlns="http://www.w3.org/2000/svg"
 width="512.000000pt" height="512.000000pt" viewBox="0 0 512.000000 512.000000"
 preserveAspectRatio="xMidYMid meet">

<g transform="translate(0.000000,512.000000) scale(0.100000,-0.100000)"
 stroke="none">
<path d="M2394 5106 c-230 -44 -407 -138 -559 -298 -93 -96 -142 -167 -195
-281 -66 -141 -82 -218 -87 -419 l-5 -177 -358 -3 c-346 -3 -360 -4 -387 -24
-15 -11 -38 -36 -51 -54 l-22 -33 2 -1626 3 -1626 27 -80 c38 -112 91 -197
174 -279 82 -83 167 -136 279 -174 l80 -27 1265 0 1265 0 80 27 c113 39 199
92 280 174 82 83 135 168 173 279 l27 80 3 1626 2 1626 -22 33 c-13 18 -36 43
-51 54 -27 20 -41 21 -387 24 l-358 3 -5 177 c-5 201 -21 278 -87 419 -53 114
-102 185 -193 280 -189 198 -420 300 -697 309 -80 2 -151 -1 -196 -10z m321
-301 c249 -52 470 -267 535 -521 15 -59 20 -111 20 -216 l0 -138 -711 0 -711
0 4 163 c4 145 7 171 32 242 61 178 192 328 360 410 50 25 120 52 156 59 86
19 228 19 315 1z m-1165 -1312 c5 -123 7 -133 30 -158 73 -78 189 -72 242 14
20 31 23 52 27 159 l3 122 708 0 708 0 4 -122 c4 -133 13 -163 66 -203 20 -15
43 -20 89 -20 59 0 65 2 100 38 l38 37 5 133 5 132 258 3 257 2 -2 -1512 -3
-1513 -24 -60 c-33 -83 -133 -183 -216 -216 l-60 -24 -1199 -3 c-1308 -3
-1262 -4 -1361 54 -64 37 -140 125 -167 192 l-23 57 -3 1513 -2 1512 257 -2
258 -3 5 -132z"/>
<path d="M2363 2876 c-140 -27 -294 -90 -423 -174 -71 -47 -246 -221 -293
-293 -135 -208 -196 -429 -184 -673 23 -499 379 -916 871 -1022 112 -24 285
-29 397 -10 471 77 833 436 915 907 23 131 15 319 -20 452 -101 390 -405 693
-803 798 -101 27 -353 35 -460 15z m278 -579 c58 -38 69 -74 69 -224 l0 -133
133 0 c106 0 139 -4 167 -18 107 -53 107 -207 0 -263 -29 -16 -57 -19 -167
-19 l-133 0 0 -133 c0 -145 -10 -181 -64 -222 -39 -28 -133 -28 -173 1 -53 38
-63 75 -63 222 l0 132 -133 0 c-110 0 -138 3 -167 19 -107 56 -107 210 0 263
28 14 61 18 168 18 l132 0 0 133 c0 106 4 139 18 167 25 50 75 80 132 80 32 0
58 -7 81 -23z"/>
</g>
</svg>
