<?xml version="1.0" standalone="no"?>
<!DOCTYPE svg PUBLIC "-//W3C//DTD SVG 20010904//EN"
 "http://www.w3.org/TR/2001/REC-SVG-20010904/DTD/svg10.dtd">
<svg version="1.0" xmlns="http://www.w3.org/2000/svg"
 width="512.000000pt" height="512.000000pt" viewBox="0 0 512.000000 512.000000"
 preserveAspectRatio="xMidYMid meet">

<g transform="translate(0.000000,512.000000) scale(0.100000,-0.100000)"
 stroke="none">
<path d="M2370 5114 c-19 -2 -78 -9 -130 -15 -791 -90 -1522 -586 -1924 -1305
-146 -262 -252 -587 -297 -914 -20 -143 -18 -527 4 -670 90 -586 331 -1065
738 -1467 63 -62 155 -145 204 -185 642 -513 1493 -684 2290 -461 929 260
1646 1043 1819 1987 156 845 -103 1682 -705 2285 -399 398 -879 639 -1449 726
-100 15 -472 28 -550 19z m534 -169 c323 -51 626 -158 886 -315 643 -386 1055
-1017 1162 -1775 17 -118 16 -474 -1 -595 -73 -529 -298 -997 -661 -1374 -372
-387 -878 -641 -1430 -717 -121 -17 -477 -18 -595 -1 -396 56 -725 179 -1045
393 -379 252 -691 626 -869 1041 -89 206 -143 400 -183 653 -16 105 -16 505 0
610 40 249 93 443 179 644 177 418 491 795 873 1050 347 232 713 361 1155 405
84 9 434 -4 529 -19z"/>
<path d="M2320 4725 l0 -75 80 0 80 0 0 75 0 75 -80 0 -80 0 0 -75z"/>
<path d="M2640 4725 l0 -75 80 0 80 0 0 75 0 75 -80 0 -80 0 0 -75z"/>
<path d="M2415 4474 c-299 -35 -498 -90 -716 -200 -105 -53 -221 -126 -317
-201 l-84 -66 1353 -1353 c744 -744 1356 -1351 1361 -1348 16 10 130 166 178
242 469 757 356 1732 -274 2366 -315 316 -724 510 -1175 556 -97 9 -258 11
-326 4z m346 -159 c289 -34 543 -128 792 -294 114 -77 285 -233 377 -346 390
-478 503 -1133 294 -1717 -49 -136 -207 -428 -232 -428 -4 0 -94 87 -200 193
l-192 192 0 963 0 962 -800 0 -800 0 0 -75 0 -75 723 -2 722 -3 3 -802 c1
-442 -1 -803 -5 -803 -10 0 -1913 1902 -1913 1912 0 12 143 100 249 153 125
62 215 96 349 129 212 54 415 67 633 41z"/>
<path d="M1066 3764 c-614 -773 -555 -1865 139 -2559 282 -281 635 -465 1035
-537 165 -30 476 -30 643 0 258 47 474 130 689 262 76 48 232 162 242 178 3 5
-604 617 -1348 1361 l-1354 1354 -46 -59z m261 -366 l193 -193 0 -615 0 -615
347 -347 348 -348 452 0 453 0 0 75 0 75 -402 2 -403 3 -3 317 -2 318 -318 2
-317 3 -3 483 c-1 265 1 482 5 482 10 0 1913 -1903 1913 -1913 0 -12 -139 -97
-250 -153 -413 -205 -884 -238 -1333 -93 -128 41 -354 156 -467 236 -108 78
-267 226 -350 328 -441 540 -523 1301 -205 1918 47 92 132 227 143 227 4 0 93
-87 199 -192z m833 -1663 c0 -102 -1 -185 -3 -185 -1 0 -85 83 -187 185 l-185
185 188 0 187 0 0 -185z"/>
<path d="M2320 395 l0 -75 80 0 80 0 0 75 0 75 -80 0 -80 0 0 -75z"/>
<path d="M2640 395 l0 -75 80 0 80 0 0 75 0 75 -80 0 -80 0 0 -75z"/>
</g>
</svg>
