<?xml version="1.0" standalone="no"?>
<!DOCTYPE svg PUBLIC "-//W3C//DTD SVG 20010904//EN"
 "http://www.w3.org/TR/2001/REC-SVG-20010904/DTD/svg10.dtd">
<svg version="1.0" xmlns="http://www.w3.org/2000/svg"
 width="512.000000pt" height="512.000000pt" viewBox="0 0 512.000000 512.000000"
 preserveAspectRatio="xMidYMid meet">

<g transform="translate(0.000000,512.000000) scale(0.100000,-0.100000)"
fill="#000000" stroke="none">
<path d="M2386 4949 c-565 -78 -1010 -495 -1133 -1061 -25 -116 -25 -400 0
-516 96 -442 382 -794 786 -966 646 -277 1409 7 1714 636 84 175 125 332 134
524 22 444 -179 868 -537 1134 -144 106 -356 200 -534 236 -90 18 -340 26
-430 13z m422 -299 c136 -35 332 -126 370 -172 9 -11 -140 -165 -723 -748
-404 -404 -736 -732 -738 -730 -62 75 -140 240 -174 368 -24 86 -27 116 -27
262 0 146 3 176 26 261 102 380 392 665 770 758 114 28 135 30 283 26 91 -3
155 -10 213 -25z m631 -445 c60 -92 108 -202 139 -314 23 -85 26 -115 26 -261
0 -146 -3 -176 -26 -261 -103 -381 -384 -659 -771 -762 -118 -31 -385 -31
-501 1 -128 35 -281 107 -366 172 l-25 19 735 736 c404 404 737 735 740 735 3
0 25 -29 49 -65z"/>
<path d="M2453 4301 c-109 -37 -185 -114 -219 -219 -24 -78 -16 -190 20 -259
14 -29 30 -53 34 -53 4 0 115 108 246 239 l239 239 -34 21 c-83 51 -195 64
-286 32z"/>
<path d="M2430 3115 l-294 -294 59 -27 c159 -70 373 -92 547 -56 167 35 334
122 441 230 l47 48 -38 64 c-45 77 -146 181 -226 234 -63 41 -187 95 -221 96
-13 0 -121 -101 -315 -295z"/>
<path d="M585 3588 c-58 -45 -55 24 -55 -1378 l0 -1290 95 0 95 0 0 1221 c0
1230 0 1249 34 1271 6 4 87 8 180 8 l169 0 -7 61 c-3 34 -6 77 -6 95 l0 34
-239 0 c-229 0 -239 -1 -266 -22z"/>
<path d="M4030 3576 c0 -18 -3 -61 -6 -95 l-7 -61 207 0 c193 0 207 -1 226
-20 20 -20 20 -33 20 -1250 l0 -1230 95 0 95 0 0 1290 c0 1402 3 1333 -55
1378 -27 21 -36 22 -301 22 l-274 0 0 -34z"/>
<path d="M860 2100 l0 -1180 1735 0 1735 0 0 1180 0 1180 -170 0 c-128 0 -172
-3 -174 -12 -50 -177 -109 -309 -199 -446 -220 -333 -557 -559 -952 -639 -125
-25 -424 -25 -548 0 -535 108 -962 486 -1128 1001 l-31 96 -134 0 -134 0 0
-1180z"/>
<path d="M170 761 c-13 -25 -13 -132 0 -202 16 -84 74 -193 137 -255 63 -62
170 -119 252 -134 74 -14 3928 -14 4002 0 30 5 87 26 127 46 170 83 272 256
272 461 0 115 93 103 -800 103 l-779 0 -3 -145 -3 -145 -33 -32 -32 -33 -750
0 -750 0 -32 33 -33 32 -3 145 -3 145 -779 0 c-760 0 -780 0 -790 -19z"/>
<path d="M1880 670 l0 -110 680 0 680 0 0 110 0 110 -680 0 -680 0 0 -110z"/>
</g>
</svg>
